<svg id="visual" viewBox="0 0 900 900" width="900" height="900" xmlns="http://www.w3.org/2000/svg" xmlns:xlink="http://www.w3.org/1999/xlink" version="1.1"><g transform="translate(386.4156913414629 483.45420589843377)"><path d="M249.2 -283.2C341.5 -219.5 447.7 -158.6 485.6 -67.3C523.5 23.9 493 145.4 425.5 230.2C358.1 314.9 253.8 362.8 156.7 373.3C59.6 383.9 -30.3 357.1 -120.5 326.4C-210.6 295.6 -301 260.8 -342.6 194.9C-384.1 129 -376.7 31.9 -368.7 -73.9C-360.6 -179.8 -351.9 -294.4 -290.4 -363.6C-228.8 -432.7 -114.4 -456.4 -18 -434.9C78.4 -413.5 156.8 -346.9 249.2 -283.2" fill="#5f7d99"></path></g></svg>