<svg id="visual" viewBox="0 0 900 350" width="100" height="100" xmlns="http://www.w3.org/2000/svg" xmlns:xlink="http://www.w3.org/1999/xlink" version="1.1"><path d="M0 144L21.5 141.5C43 139 86 134 128.8 134.5C171.7 135 214.3 141 257.2 132.3C300 123.7 343 100.3 385.8 103.3C428.7 106.3 471.3 135.7 514.2 133.5C557 131.3 600 97.7 642.8 94.7C685.7 91.7 728.3 119.3 771.2 136C814 152.7 857 158.3 878.5 161.2L900 164L900 351L878.5 351C857 351 814 351 771.2 351C728.3 351 685.7 351 642.8 351C600 351 557 351 514.2 351C471.3 351 428.7 351 385.8 351C343 351 300 351 257.2 351C214.3 351 171.7 351 128.8 351C86 351 43 351 21.5 351L0 351Z" fill="#15152a"></path><path d="M0 110L21.5 116.7C43 123.3 86 136.7 128.8 140.8C171.7 145 214.3 140 257.2 147.3C300 154.7 343 174.3 385.8 168.5C428.7 162.7 471.3 131.3 514.2 131.7C557 132 600 164 642.8 171.8C685.7 179.7 728.3 163.3 771.2 158.5C814 153.7 857 160.3 878.5 163.7L900 167L900 351L878.5 351C857 351 814 351 771.2 351C728.3 351 685.7 351 642.8 351C600 351 557 351 514.2 351C471.3 351 428.7 351 385.8 351C343 351 300 351 257.2 351C214.3 351 171.7 351 128.8 351C86 351 43 351 21.5 351L0 351Z" fill="#23283f"></path><path d="M0 213L21.5 208.2C43 203.3 86 193.7 128.8 187.8C171.7 182 214.3 180 257.2 175.7C300 171.3 343 164.7 385.8 170.8C428.7 177 471.3 196 514.2 201.5C557 207 600 199 642.8 189.7C685.7 180.3 728.3 169.7 771.2 173.5C814 177.3 857 195.7 878.5 204.8L900 214L900 351L878.5 351C857 351 814 351 771.2 351C728.3 351 685.7 351 642.8 351C600 351 557 351 514.2 351C471.3 351 428.7 351 385.8 351C343 351 300 351 257.2 351C214.3 351 171.7 351 128.8 351C86 351 43 351 21.5 351L0 351Z" fill="#323c55"></path><path d="M0 250L21.5 251.5C43 253 86 256 128.8 247.5C171.7 239 214.3 219 257.2 216.5C300 214 343 229 385.8 227.8C428.7 226.7 471.3 209.3 514.2 200.5C557 191.7 600 191.3 642.8 200.5C685.7 209.7 728.3 228.3 771.2 239.8C814 251.3 857 255.7 878.5 257.8L900 260L900 351L878.5 351C857 351 814 351 771.2 351C728.3 351 685.7 351 642.8 351C600 351 557 351 514.2 351C471.3 351 428.7 351 385.8 351C343 351 300 351 257.2 351C214.3 351 171.7 351 128.8 351C86 351 43 351 21.5 351L0 351Z" fill="#40516b"></path><path d="M0 233L21.5 240.2C43 247.3 86 261.7 128.8 268.8C171.7 276 214.3 276 257.2 275.5C300 275 343 274 385.8 274.5C428.7 275 471.3 277 514.2 271.7C557 266.3 600 253.7 642.8 253.7C685.7 253.7 728.3 266.3 771.2 268.7C814 271 857 263 878.5 259L900 255L900 351L878.5 351C857 351 814 351 771.2 351C728.3 351 685.7 351 642.8 351C600 351 557 351 514.2 351C471.3 351 428.7 351 385.8 351C343 351 300 351 257.2 351C214.3 351 171.7 351 128.8 351C86 351 43 351 21.5 351L0 351Z" fill="#4f6682"></path><path d="M0 309L21.5 305.8C43 302.7 86 296.3 128.8 298.7C171.7 301 214.3 312 257.2 314C300 316 343 309 385.8 303.8C428.7 298.7 471.3 295.3 514.2 295.5C557 295.7 600 299.3 642.8 304.2C685.7 309 728.3 315 771.2 316.2C814 317.3 857 313.7 878.5 311.8L900 310L900 351L878.5 351C857 351 814 351 771.2 351C728.3 351 685.7 351 642.8 351C600 351 557 351 514.2 351C471.3 351 428.7 351 385.8 351C343 351 300 351 257.2 351C214.3 351 171.7 351 128.8 351C86 351 43 351 21.5 351L0 351Z" fill="#5f7d99"></path></svg>